# xmcd
#
# Track frame offsets: 
#        150
#        23073
#        42699
#        62709
#        79199
#        98737
#        120966
#        138296
#        155725
#        172493
#
# Disc length: 2515 seconds
#
# Revision: 0
# Processed by: cddbd v1.5.2PL0 Copyright (c) Steve Scherf et al.
# Submitted via: ExactAudioCopy v1.3
#
DISCID=8609d10a
DTITLE=Shane Smith and the Saints - Hail Mary
DYEAR=2019
DGENRE=Country
TTITLE0=Heaven Knows
TTITLE1=Whirlwind
TTITLE2=Oklahoma City
TTITLE3=Parliament Smoke
TTITLE4=Hail Mary
TTITLE5=Little Bird
TTITLE6=We Were Something
TTITLE7=We'll Never Know
TTITLE8=Last Train to Heaven
TTITLE9=The End
EXTD=
EXTT0=
EXTT1=
EXTT2=
EXTT3=
EXTT4=
EXTT5=
EXTT6=
EXTT7=
EXTT8=
EXTT9=
PLAYORDER=
